<svg data-v-0dd9719b="" version="1.0" xmlns="http://www.w3.org/2000/svg"
  xmlns:xlink="http://www.w3.org/1999/xlink" preserveAspectRatio="xMidYMid meet"
  color-interpolation-filters="sRGB" style="margin: auto;" viewBox="47.57 95 244.86 60">
  <g data-v-0dd9719b="" fill="#f9bf4b" class="icon-text-wrapper icon-svg-group iconsvg"
    transform="translate(47.56999969482422,95)">
    <g class="iconsvg-imagesvg" transform="translate(0,0)">
      <g>
        <rect fill="#f9bf4b" fill-opacity="0" stroke-width="2" x="0" y="0" width="60" height="60"
          class="image-rect"></rect>
        <svg filter="url(#colors7932571038)" x="0" y="0" width="60" height="60"
          filtersec="colorsf6053819574" class="image-svg-svg primary" style="overflow: visible;">
          <svg xmlns="http://www.w3.org/2000/svg" xmlns:xlink="http://www.w3.org/1999/xlink"
            version="1.0" x="0px" y="0px" viewBox="10 10 80 80" enable-background="new 0 0 100 100"
            xml:space="preserve"><path d="M83.333,10H16.667C13.001,10,10,13.001,10,16.667v66.666C10,86.999,13.001,90,16.667,90h66.666  C86.999,90,90,86.999,90,83.333V16.667C90,13.001,86.999,10,83.333,10z M80,66.667L50,83.333l-16.667-9.258V41.179L50,31.921  l16.667,9.258v17.643L50,68.079l-3.333-1.852V49.023L50,47.175l3.333,1.849v9.577L60,54.899v-9.799l-10-5.557l-10,5.557v25.049  l10,5.557l23.333-12.962V37.256L50,24.294L26.667,37.256v33.115L20,66.667V33.333l30-16.666l30,16.666V66.667z"></path></svg>
        </svg>
        <defs>
          <filter id="colors7932571038">
            <feColorMatrix type="matrix"
              values="0 0 0 0 0.99609375  0 0 0 0 0.89453125  0 0 0 0 0.59765625  0 0 0 1 0"
              class="icon-fecolormatrix"></feColorMatrix>
          </filter>
          <filter id="colorsf6053819574">
            <feColorMatrix type="matrix"
              values="0 0 0 0 0.99609375  0 0 0 0 0.99609375  0 0 0 0 0.99609375  0 0 0 1 0"
              class="icon-fecolormatrix"></feColorMatrix>
          </filter>
          <filter id="colorsb7511385165">
            <feColorMatrix type="matrix" values="0 0 0 0 0  0 0 0 0 0  0 0 0 0 0  0 0 0 1 0"
              class="icon-fecolormatrix"></feColorMatrix>
          </filter>
        </defs>
      </g>
    </g>
    <g transform="translate(67,10.802040100097656)">
      <g data-gra="path-name" fill-rule="" class="tp-name iconsvg-namesvg"
        transform="translate(0,0)">
        <g transform="scale(1)">
          <g>
            <path
              d="M8.44-3.15C7.5-3.15 6.58-3.26 5.92-3.47 5.29-3.68 5.18-3.96 5.18-4.62L5.18-6.76 1.61-6.51 1.61-0.98C3.71 0 5.88 0.46 8.69 0.46 13.52 0.46 17.16-2.07 17.16-6.69 17.16-11.21 13.8-12.64 10.61-13.66 7.99-14.47 5.95-15.06 5.95-17.23 5.95-19.4 7.57-20.25 9.63-20.25 10.33-20.25 11.24-20.18 11.91-19.96 12.54-19.75 12.64-19.47 12.64-18.81L12.64-16.78 16.22-17.02 16.22-22.28C14.12-23.26 11.94-23.71 9.63-23.71 4.8-23.71 1.51-21.12 1.51-16.85 1.51-12.36 4.73-10.96 8.2-10.02 10.65-9.35 12.64-8.72 12.64-6.51 12.64-3.89 10.75-3.15 8.44-3.15ZM22.98-21.33C22.24-19.33 21.4-17.44 18.95-17.23L18.6-14.68 21.09-14.68 21.09-5.32C21.09-2.87 21.05 0.49 26.51 0.49 28.16 0.49 29.91 0 30.96-0.74L29.91-3.43C29.35-3.08 28.48-2.7 27.53-2.7 26.09-2.7 25.25-3.33 25.25-5.46L25.25-14.68 29.56-14.68 29.91-17.62 25.25-17.62 25.25-21.33ZM34.47-3.92C34.47-3.05 34.12-2.84 33.45-2.77L32.29-2.66 32.29 0 41.68 0 41.68-2.77 38.63-2.91 38.63-11.03C38.63-13.06 39.93-14.57 41.82-14.57 42.21-14.57 42.45-14.54 42.77-14.4 43.05-14.26 43.12-13.94 43.12-13.52L43.12-11.91 46.37-12.15 46.37-17.37C45.22-17.93 44.17-18.14 43.01-18.14 40.7-18.14 38.84-16.74 38.04-14.99L38.04-17.62 32.12-17.62 32.12-14.78 33.59-14.68C34.26-14.64 34.47-14.4 34.47-13.63ZM57.27-18.14C51.52-18.14 48.62-13.59 48.62-8.41 48.62-3.19 50.93 0.46 56.88 0.46 60.18 0.46 62.49-1.02 63.05-1.51L61.72-4.34C60.88-3.75 59.37-2.8 57.3-2.8 54.33-2.8 53.13-4.66 52.99-6.94 57.13-6.97 62.98-7.88 62.98-13.27 62.98-16.39 60.7-18.14 57.27-18.14ZM59.12-13.2C59.12-10.51 55.45-9.91 52.85-9.88 52.96-12.47 54.22-15.17 57.02-15.17 58.28-15.17 59.12-14.5 59.12-13.2ZM81.16-16.92C78.63-17.86 76.08-18.14 74.92-18.14 68.62-18.14 65.67-14.22 65.67-8.06 65.67-3.05 67.74 0.46 72.68 0.46 74.61 0.46 76.39-0.49 77.48-2.07L77.58-2.03 77.58 0 83.15 0 83.15-2.8 82.03-2.87C81.37-2.91 81.16-3.12 81.16-3.89ZM77.09-5.57C77.09-4.06 75.76-2.52 73.59-2.52 70.65-2.52 69.95-5.29 69.95-8.2 69.95-11.98 71.07-15.1 74.4-15.1 75.48-15.1 76.57-14.89 77.09-14.64ZM85.08-14.78L86.55-14.68C87.22-14.64 87.43-14.36 87.43-13.59L87.43-3.92 87.39-3.92C87.39-3.05 87.04-2.84 86.37-2.77L85.22-2.66 85.22 0 93.49 0 93.49-2.8 91.59-2.91 91.59-11.38C91.59-13.2 92.54-14.92 94.99-14.92 97.23-14.92 97.41-13.27 97.41-11.14L97.41-3.92C97.41-3.05 97.06-2.84 96.39-2.77L95.24-2.66 95.24 0 103.5 0 103.5-2.8 101.58-2.91 101.58-11.31C101.58-13.38 102.63-14.92 104.97-14.92 107.22-14.92 107.39-13.27 107.39-11.14L107.39-3.89C107.36-3.05 107.01-2.84 106.37-2.77L105.22-2.66 105.22 0 113.56 0 113.56-2.8 111.56-2.91 111.56-12.05C111.56-16.18 109.6-18.14 106.3-18.14 103.99-18.14 102.21-17.09 100.98-15.34 100.18-17.23 98.56-18.14 96.32-18.14 94.01-18.14 92.22-17.09 91-15.34L91-17.62 85.08-17.62ZM122.66 0L132.22 0 132.22-2.98 129.11-3.08 129.11-9.95 137.72-9.95 137.72-13.52 129.11-13.52 129.11-19.72 135.17-19.72C136.11-19.72 136.18-19.3 136.18-18.63L136.18-17.23 139.75-17.48 139.75-23.29 122.84-23.29 122.84-20.32 124.83-20.21 124.83-3.92C124.83-3.22 124.41-3.01 123.82-2.94L122.66-2.84ZM147.92-24.97L141.65-24.97 141.65-22.07 142.87-22C143.4-21.96 143.75-21.79 143.75-21.16L143.75-3.89C143.75-3.05 143.36-2.84 142.73-2.77L141.58-2.66 141.58 0 149.91 0 149.91-2.8 147.92-2.91ZM158.42-17.62L152.15-17.62 152.15-14.71 153.38-14.64C154.05-14.64 154.26-14.4 154.26-13.63L154.26-3.89C154.26-3.05 153.87-2.84 153.24-2.77L152.08-2.66 152.08 0 160.42 0 160.42-2.8 158.42-2.91ZM153.27-22.49C153.27-21.02 154.33-19.93 155.94-19.93 157.51-19.93 158.63-21.02 158.63-22.49 158.63-23.96 157.51-25.11 155.97-25.11 154.33-25.11 153.27-23.96 153.27-22.49ZM172.47-3.71C172.78-3.29 172.78-2.87 172.12-2.84L171.03-2.77 171.03 0 179.37 0 179.37-2.77 177.58-2.98 172.99-9.07 176.85-13.94C177.3-14.5 177.65-14.78 178.25-14.82L179.3-14.89 179.3-17.62 172.19-17.62 172.19-14.82 173.63-14.71 170.93-11.21 168.93-13.87C168.62-14.29 168.79-14.75 169.35-14.78L170.37-14.85 170.37-17.62 162.21-17.62 162.21-14.92 163.99-14.71 168.3-8.76 164.27-3.71C163.82-3.15 163.47-2.94 162.87-2.87L161.79-2.77 161.79 0 169.07 0 169.07-2.8 167.43-2.91 170.33-6.51Z"
              transform="translate(-1.5099999904632568, 25.110000610351562)"></path>
          </g> <!----> <!----> <!----> <!----> <!----> <!----> <!---->
        </g>
      </g>
      <g data-gra="path-slogan" fill-rule="" class="tp-slogan iconsvg-slogansvg" fill="#f9bf4b"
        transform="translate(1.589996337890625,31.600000381469727)">
        <rect width="0"></rect>
        <rect x="177.6800079345703" width="0"></rect>
        <g transform="translate(0,0)">
          <g transform="scale(1)">
            <path
              d="M0.92-1.43L0.42-0.85C0.71-0.55 1.05-0.31 1.44-0.14C1.83 0.03 2.26 0.12 2.72 0.12C3.06 0.12 3.37 0.07 3.65-0.02C3.92-0.12 4.15-0.25 4.35-0.42C4.54-0.59 4.69-0.79 4.79-1.02C4.90-1.25 4.95-1.49 4.95-1.75C4.95-1.99 4.91-2.20 4.84-2.38C4.77-2.57 4.68-2.73 4.56-2.86C4.44-3.00 4.29-3.12 4.13-3.22C3.96-3.33 3.78-3.42 3.60-3.50L2.67-3.90C2.54-3.95 2.41-4.01 2.28-4.07C2.15-4.14 2.04-4.21 1.93-4.29C1.82-4.38 1.74-4.47 1.67-4.58C1.61-4.69 1.58-4.83 1.58-4.99C1.58-5.29 1.69-5.52 1.91-5.69C2.14-5.86 2.43-5.95 2.80-5.95C3.10-5.95 3.38-5.89 3.62-5.78C3.87-5.67 4.09-5.52 4.29-5.33L4.74-5.87C4.50-6.11 4.22-6.30 3.89-6.45C3.55-6.60 3.19-6.68 2.80-6.68C2.50-6.68 2.22-6.63 1.97-6.55C1.72-6.46 1.51-6.34 1.32-6.18C1.14-6.02 1.00-5.84 0.89-5.63C0.79-5.41 0.74-5.18 0.74-4.94C0.74-4.70 0.78-4.49 0.86-4.30C0.94-4.12 1.04-3.96 1.17-3.83C1.30-3.69 1.44-3.58 1.60-3.49C1.76-3.39 1.92-3.31 2.07-3.25L3.01-2.84C3.16-2.76 3.30-2.70 3.44-2.63C3.57-2.56 3.69-2.49 3.78-2.40C3.88-2.32 3.96-2.22 4.01-2.10C4.07-1.99 4.10-1.85 4.10-1.68C4.10-1.36 3.98-1.10 3.74-0.90C3.50-0.71 3.16-0.61 2.73-0.61C2.39-0.61 2.06-0.68 1.74-0.83C1.43-0.98 1.15-1.18 0.92-1.43ZM7.28-5.86L7.28 0L8.12 0L8.12-5.86L10.10-5.86L10.10-6.56L5.30-6.56L5.30-5.86ZM11.99-3.45L11.99-5.89L13.09-5.89C13.61-5.89 14.00-5.80 14.27-5.63C14.55-5.45 14.68-5.15 14.68-4.72C14.68-4.29 14.55-3.97 14.27-3.76C14.00-3.55 13.61-3.45 13.09-3.45ZM14.76 0L15.70 0L14.04-2.86C14.49-2.97 14.85-3.18 15.11-3.49C15.38-3.79 15.51-4.20 15.51-4.72C15.51-5.06 15.46-5.34 15.34-5.58C15.23-5.81 15.07-6.00 14.87-6.15C14.66-6.29 14.42-6.40 14.14-6.46C13.85-6.52 13.55-6.56 13.21-6.56L11.16-6.56L11.16 0L11.99 0L11.99-2.77L13.18-2.77ZM16.86-6.56L16.86 0L20.73 0L20.73-0.71L17.69-0.71L17.69-3.09L20.17-3.09L20.17-3.80L17.69-3.80L17.69-5.86L20.63-5.86L20.63-6.56ZM24.80-2.67L22.83-2.67L23.14-3.67C23.26-4.03 23.37-4.40 23.48-4.76C23.58-5.13 23.69-5.50 23.79-5.88L23.83-5.88C23.93-5.50 24.04-5.13 24.15-4.76C24.25-4.40 24.37-4.03 24.49-3.67ZM25.01-2.00L25.63 0L26.52 0L24.30-6.56L23.36-6.56L21.14 0L21.99 0L22.62-2.00ZM27.33-6.56L27.33 0L28.10 0L28.10-3.61C28.10-3.90 28.09-4.22 28.06-4.58C28.03-4.93 28.01-5.25 27.99-5.55L28.03-5.55L28.55-4.09L29.82-0.66L30.29-0.66L31.55-4.09L32.08-5.55L32.12-5.55C32.09-5.25 32.07-4.93 32.04-4.58C32.02-4.22 32.01-3.90 32.01-3.61L32.01 0L32.80 0L32.80-6.56L31.82-6.56L30.56-3.04L30.10-1.70L30.06-1.70L29.58-3.04L28.31-6.56ZM34.48-6.56L34.48 0L35.31 0L35.31-6.56ZM37.00-6.56L37.00 0L37.79 0L37.79-3.43C37.79-3.77 37.77-4.12 37.75-4.46C37.73-4.81 37.70-5.14 37.68-5.48L37.72-5.48L38.43-4.13L40.80 0L41.66 0L41.66-6.56L40.87-6.56L40.87-3.17C40.87-2.82 40.89-2.47 40.91-2.11C40.93-1.76 40.95-1.41 40.97-1.08L40.93-1.08L40.22-2.44L37.86-6.56ZM42.97-3.28C42.97-2.74 43.04-2.27 43.19-1.84C43.34-1.42 43.54-1.06 43.80-0.77C44.06-0.48 44.37-0.26 44.73-0.11C45.09 0.04 45.48 0.12 45.92 0.12C46.36 0.12 46.75 0.05 47.10-0.09C47.45-0.24 47.73-0.42 47.95-0.64L47.95-3.40L45.80-3.40L45.80-2.71L47.19-2.71L47.19-1.00C47.05-0.88 46.88-0.78 46.67-0.71C46.46-0.64 46.24-0.61 46.01-0.61C45.65-0.61 45.34-0.67 45.07-0.80C44.80-0.93 44.58-1.11 44.39-1.34C44.21-1.57 44.07-1.85 43.97-2.18C43.88-2.51 43.83-2.88 43.83-3.30C43.83-3.70 43.88-4.07 43.98-4.40C44.09-4.72 44.23-5.00 44.42-5.23C44.60-5.46 44.83-5.64 45.10-5.76C45.36-5.88 45.66-5.95 46.00-5.95C46.33-5.95 46.61-5.89 46.82-5.77C47.04-5.65 47.23-5.51 47.40-5.34L47.87-5.87C47.67-6.07 47.42-6.25 47.12-6.42C46.82-6.59 46.44-6.68 45.99-6.68C45.55-6.68 45.14-6.60 44.78-6.44C44.41-6.28 44.09-6.06 43.82-5.77C43.55-5.47 43.34-5.12 43.19-4.70C43.04-4.28 42.97-3.80 42.97-3.28ZM54.09-2.67L52.12-2.67L52.43-3.67C52.55-4.03 52.67-4.40 52.77-4.76C52.88-5.13 52.98-5.50 53.08-5.88L53.12-5.88C53.23-5.50 53.34-5.13 53.44-4.76C53.55-4.40 53.66-4.03 53.78-3.67ZM54.30-2.00L54.92 0L55.81 0L53.59-6.56L52.65-6.56L50.44 0L51.29 0L51.91-2.00ZM56.63-6.56L56.63 0L60.33 0L60.33-0.71L57.46-0.71L57.46-6.56ZM61.37-6.56L61.37 0L65.07 0L65.07-0.71L62.20-0.71L62.20-6.56ZM68.02-6.56L68.02 0L68.79 0L68.79-3.61C68.79-3.90 68.77-4.22 68.75-4.58C68.72-4.93 68.70-5.25 68.68-5.55L68.72-5.55L69.24-4.09L70.51-0.66L70.98-0.66L72.23-4.09L72.76-5.55L72.80-5.55C72.78-5.25 72.75-4.93 72.73-4.58C72.71-4.22 72.69-3.90 72.69-3.61L72.69 0L73.48 0L73.48-6.56L72.50-6.56L71.25-3.04L70.79-1.70L70.75-1.70L70.27-3.04L69.00-6.56ZM77.59 0.12C78.00 0.12 78.38 0.04 78.72-0.12C79.06-0.28 79.36-0.51 79.61-0.80C79.86-1.10 80.05-1.46 80.19-1.88C80.33-2.31 80.40-2.78 80.40-3.31C80.40-3.83 80.33-4.30 80.19-4.71C80.05-5.13 79.86-5.48 79.61-5.77C79.36-6.06 79.06-6.28 78.72-6.44C78.38-6.60 78.00-6.68 77.59-6.68C77.17-6.68 76.80-6.60 76.45-6.45C76.11-6.29 75.82-6.07 75.57-5.78C75.32-5.49 75.13-5.14 74.99-4.72C74.86-4.31 74.79-3.83 74.79-3.31C74.79-2.78 74.86-2.31 74.99-1.88C75.13-1.46 75.32-1.10 75.57-0.80C75.82-0.51 76.11-0.28 76.45-0.12C76.80 0.04 77.17 0.12 77.59 0.12ZM77.59-0.61C77.29-0.61 77.03-0.67 76.79-0.80C76.56-0.93 76.35-1.11 76.18-1.34C76.01-1.58 75.88-1.86 75.79-2.19C75.70-2.52 75.65-2.89 75.65-3.31C75.65-3.71 75.70-4.08 75.79-4.41C75.88-4.73 76.01-5.01 76.18-5.24C76.35-5.46 76.56-5.64 76.79-5.76C77.03-5.88 77.29-5.95 77.59-5.95C77.88-5.95 78.15-5.88 78.38-5.76C78.62-5.64 78.82-5.46 78.99-5.24C79.16-5.01 79.29-4.73 79.39-4.41C79.48-4.08 79.53-3.71 79.53-3.31C79.53-2.89 79.48-2.52 79.39-2.19C79.29-1.86 79.16-1.58 78.99-1.34C78.82-1.11 78.62-0.93 78.38-0.80C78.15-0.67 77.88-0.61 77.59-0.61ZM80.69-6.56L82.79 0L83.76 0L85.84-6.56L84.99-6.56L83.94-3.02C83.83-2.63 83.72-2.26 83.63-1.93C83.54-1.60 83.43-1.24 83.31-0.85L83.27-0.85C83.14-1.24 83.03-1.60 82.94-1.93C82.85-2.26 82.75-2.63 82.63-3.02L81.58-6.56ZM86.62-6.56L86.62 0L87.45 0L87.45-6.56ZM89.14-6.56L89.14 0L93.01 0L93.01-0.71L89.97-0.71L89.97-3.09L92.46-3.09L92.46-3.80L89.97-3.80L89.97-5.86L92.91-5.86L92.91-6.56ZM94.31-1.43L93.81-0.85C94.10-0.55 94.44-0.31 94.83-0.14C95.22 0.03 95.65 0.12 96.11 0.12C96.45 0.12 96.76 0.07 97.04-0.02C97.31-0.12 97.54-0.25 97.74-0.42C97.93-0.59 98.08-0.79 98.18-1.02C98.29-1.25 98.34-1.49 98.34-1.75C98.34-1.99 98.30-2.20 98.23-2.38C98.16-2.57 98.07-2.73 97.95-2.86C97.83-3.00 97.68-3.12 97.52-3.22C97.35-3.33 97.17-3.42 96.99-3.50L96.06-3.90C95.93-3.95 95.80-4.01 95.67-4.07C95.54-4.14 95.43-4.21 95.32-4.29C95.21-4.38 95.13-4.47 95.06-4.58C95.00-4.69 94.97-4.83 94.97-4.99C94.97-5.29 95.08-5.52 95.30-5.69C95.53-5.86 95.82-5.95 96.19-5.95C96.49-5.95 96.77-5.89 97.01-5.78C97.26-5.67 97.48-5.52 97.68-5.33L98.13-5.87C97.89-6.11 97.61-6.30 97.28-6.45C96.94-6.60 96.58-6.68 96.19-6.68C95.89-6.68 95.61-6.63 95.36-6.55C95.11-6.46 94.90-6.34 94.71-6.18C94.53-6.02 94.39-5.84 94.28-5.63C94.18-5.41 94.13-5.18 94.13-4.94C94.13-4.70 94.17-4.49 94.25-4.30C94.33-4.12 94.43-3.96 94.56-3.83C94.69-3.69 94.83-3.58 94.99-3.49C95.15-3.39 95.31-3.31 95.46-3.25L96.40-2.84C96.55-2.76 96.69-2.70 96.83-2.63C96.96-2.56 97.08-2.49 97.17-2.40C97.27-2.32 97.35-2.22 97.40-2.10C97.46-1.99 97.49-1.85 97.49-1.68C97.49-1.36 97.37-1.10 97.13-0.90C96.89-0.71 96.55-0.61 96.12-0.61C95.78-0.61 95.45-0.68 95.13-0.83C94.82-0.98 94.54-1.18 94.31-1.43ZM101.42-6.56L101.42 0L102.25 0L102.25-6.56ZM103.93-6.56L103.93 0L104.72 0L104.72-3.43C104.72-3.77 104.71-4.12 104.69-4.46C104.66-4.81 104.64-5.14 104.61-5.48L104.65-5.48L105.36-4.13L107.74 0L108.60 0L108.60-6.56L107.81-6.56L107.81-3.17C107.81-2.82 107.82-2.47 107.84-2.11C107.87-1.76 107.89-1.41 107.91-1.08L107.87-1.08L107.16-2.44L104.79-6.56ZM114.61 0.12C115.02 0.12 115.40 0.04 115.74-0.12C116.08-0.28 116.38-0.51 116.63-0.80C116.88-1.10 117.07-1.46 117.21-1.88C117.35-2.31 117.41-2.78 117.41-3.31C117.41-3.83 117.35-4.30 117.21-4.71C117.07-5.13 116.88-5.48 116.63-5.77C116.38-6.06 116.08-6.28 115.74-6.44C115.40-6.60 115.02-6.68 114.61-6.68C114.19-6.68 113.81-6.60 113.47-6.45C113.13-6.29 112.83-6.07 112.59-5.78C112.34-5.49 112.15-5.14 112.01-4.72C111.88-4.31 111.81-3.83 111.81-3.31C111.81-2.78 111.88-2.31 112.01-1.88C112.15-1.46 112.34-1.10 112.59-0.80C112.83-0.51 113.13-0.28 113.47-0.12C113.81 0.04 114.19 0.12 114.61 0.12ZM114.61-0.61C114.31-0.61 114.05-0.67 113.81-0.80C113.57-0.93 113.37-1.11 113.20-1.34C113.03-1.58 112.90-1.86 112.81-2.19C112.71-2.52 112.67-2.89 112.67-3.31C112.67-3.71 112.71-4.08 112.81-4.41C112.90-4.73 113.03-5.01 113.20-5.24C113.37-5.46 113.57-5.64 113.81-5.76C114.05-5.88 114.31-5.95 114.61-5.95C114.90-5.95 115.16-5.88 115.40-5.76C115.64-5.64 115.84-5.46 116.01-5.24C116.18-5.01 116.31-4.73 116.40-4.41C116.50-4.08 116.54-3.71 116.54-3.31C116.54-2.89 116.50-2.52 116.40-2.19C116.31-1.86 116.18-1.58 116.01-1.34C115.84-1.11 115.64-0.93 115.40-0.80C115.16-0.67 114.90-0.61 114.61-0.61ZM118.71-6.56L118.71 0L119.50 0L119.50-3.43C119.50-3.77 119.49-4.12 119.46-4.46C119.44-4.81 119.41-5.14 119.39-5.48L119.43-5.48L120.14-4.13L122.52 0L123.38 0L123.38-6.56L122.59-6.56L122.59-3.17C122.59-2.82 122.60-2.47 122.62-2.11C122.64-1.76 122.67-1.41 122.69-1.08L122.65-1.08L121.94-2.44L119.57-6.56ZM125.06-6.56L125.06 0L128.94 0L128.94-0.71L125.89-0.71L125.89-3.09L128.38-3.09L128.38-3.80L125.89-3.80L125.89-5.86L128.84-5.86L128.84-6.56ZM132.12-6.56L132.12 0L132.95 0L132.95-2.60L134.13-2.60C134.49-2.60 134.81-2.64 135.11-2.72C135.41-2.81 135.66-2.93 135.88-3.10C136.09-3.26 136.25-3.47 136.37-3.73C136.49-3.98 136.54-4.28 136.54-4.63C136.54-4.99 136.49-5.29 136.37-5.54C136.25-5.78 136.09-5.98 135.88-6.13C135.67-6.28 135.42-6.39 135.12-6.46C134.82-6.52 134.49-6.56 134.13-6.56ZM134.03-3.28L132.95-3.28L132.95-5.89L134.03-5.89C134.59-5.89 135.02-5.79 135.30-5.61C135.58-5.43 135.72-5.10 135.72-4.63C135.72-4.16 135.58-3.82 135.30-3.60C135.02-3.39 134.60-3.28 134.03-3.28ZM137.76-6.56L137.76 0L141.46 0L141.46-0.71L138.59-0.71L138.59-6.56ZM145.32-2.67L143.35-2.67L143.66-3.67C143.78-4.03 143.89-4.40 144.00-4.76C144.11-5.13 144.21-5.50 144.31-5.88L144.35-5.88C144.46-5.50 144.56-5.13 144.67-4.76C144.78-4.40 144.89-4.03 145.01-3.67ZM145.53-2.00L146.15 0L147.04 0L144.82-6.56L143.88-6.56L141.66 0L142.51 0L143.14-2.00ZM148.81-5.86L148.81 0L149.65 0L149.65-5.86L151.63-5.86L151.63-6.56L146.84-6.56L146.84-5.86ZM152.70-6.56L152.70 0L153.53 0L153.53-2.94L156.03-2.94L156.03-3.64L153.53-3.64L153.53-5.86L156.47-5.86L156.47-6.56ZM159.84 0.12C160.25 0.12 160.63 0.04 160.97-0.12C161.32-0.28 161.61-0.51 161.86-0.80C162.11-1.10 162.31-1.46 162.44-1.88C162.58-2.31 162.65-2.78 162.65-3.31C162.65-3.83 162.58-4.30 162.44-4.71C162.31-5.13 162.11-5.48 161.86-5.77C161.61-6.06 161.32-6.28 160.97-6.44C160.63-6.60 160.25-6.68 159.84-6.68C159.43-6.68 159.05-6.60 158.70-6.45C158.36-6.29 158.07-6.07 157.82-5.78C157.57-5.49 157.38-5.14 157.25-4.72C157.11-4.31 157.04-3.83 157.04-3.31C157.04-2.78 157.11-2.31 157.25-1.88C157.38-1.46 157.57-1.10 157.82-0.80C158.07-0.51 158.36-0.28 158.70-0.12C159.05 0.04 159.43 0.12 159.84 0.12ZM159.84-0.61C159.55-0.61 159.28-0.67 159.04-0.80C158.81-0.93 158.60-1.11 158.43-1.34C158.26-1.58 158.13-1.86 158.04-2.19C157.95-2.52 157.90-2.89 157.90-3.31C157.90-3.71 157.95-4.08 158.04-4.41C158.13-4.73 158.26-5.01 158.43-5.24C158.60-5.46 158.81-5.64 159.04-5.76C159.28-5.88 159.55-5.95 159.84-5.95C160.13-5.95 160.40-5.88 160.63-5.76C160.87-5.64 161.07-5.46 161.24-5.24C161.41-5.01 161.54-4.73 161.64-4.41C161.73-4.08 161.78-3.71 161.78-3.31C161.78-2.89 161.73-2.52 161.64-2.19C161.54-1.86 161.41-1.58 161.24-1.34C161.07-1.11 160.87-0.93 160.63-0.80C160.40-0.67 160.13-0.61 159.84-0.61ZM164.77-3.45L164.77-5.89L165.87-5.89C166.38-5.89 166.78-5.80 167.05-5.63C167.32-5.45 167.46-5.15 167.46-4.72C167.46-4.29 167.32-3.97 167.05-3.76C166.78-3.55 166.38-3.45 165.87-3.45ZM167.54 0L168.48 0L166.82-2.86C167.27-2.97 167.62-3.18 167.89-3.49C168.16-3.79 168.29-4.20 168.29-4.72C168.29-5.06 168.23-5.34 168.12-5.58C168.01-5.81 167.85-6.00 167.64-6.15C167.44-6.29 167.20-6.40 166.91-6.46C166.63-6.52 166.32-6.56 165.99-6.56L163.94-6.56L163.94 0L164.77 0L164.77-2.77L165.96-2.77ZM169.63-6.56L169.63 0L170.40 0L170.40-3.61C170.40-3.90 170.39-4.22 170.36-4.58C170.34-4.93 170.31-5.25 170.29-5.55L170.33-5.55L170.85-4.09L172.12-0.66L172.59-0.66L173.85-4.09L174.38-5.55L174.42-5.55C174.39-5.25 174.37-4.93 174.35-4.58C174.32-4.22 174.31-3.90 174.31-3.61L174.31 0L175.10 0L175.10-6.56L174.12-6.56L172.86-3.04L172.40-1.70L172.36-1.70L171.88-3.04L170.61-6.56Z"
              transform="translate(-0.4197434900893898, 6.675920270945533)"></path>
          </g>
        </g>
      </g>
    </g>
  </g>
  <defs v-gra="od"></defs>
</svg>